<?xml version="1.0" encoding="UTF-8" ?>
<!DOCTYPE svg PUBLIC "-//W3C//DTD SVG 1.1//EN" "http://www.w3.org/Graphics/SVG/1.1/DTD/svg11.dtd">
<svg width="200pt" height="73pt" viewBox="0 0 200 73" version="1.1" xmlns="http://www.w3.org/2000/svg">
<path fill="#ffffff" d=" M 0.00 0.00 L 200.00 0.00 L 200.00 73.00 L 0.00 73.00 L 0.00 0.00 Z" />
<path fill="#f68025" d=" M 23.28 6.31 C 25.13 4.67 27.16 3.12 29.67 2.66 C 27.77 4.16 25.79 5.54 23.79 6.89 C 25.18 8.25 26.54 9.64 27.87 11.05 C 27.74 9.55 27.59 8.06 27.44 6.56 C 28.97 5.89 30.52 5.24 32.08 4.63 C 32.22 8.71 32.58 13.44 29.74 16.75 C 25.61 19.66 20.40 20.35 15.51 20.93 C 16.31 17.59 17.67 14.42 19.21 11.35 C 19.56 11.80 20.26 12.69 20.61 13.14 C 20.02 14.72 19.46 16.31 18.90 17.90 C 21.33 17.06 23.73 16.14 26.10 15.15 C 25.03 13.35 23.93 11.58 22.71 9.89 C 22.59 9.75 22.36 9.48 22.25 9.35 C 20.90 9.55 19.56 9.80 18.24 10.17 C 12.53 12.58 6.84 15.16 0.83 16.75 C 8.02 12.80 14.93 7.35 23.28 6.31 Z" />
<path fill="#f6af79" d=" M 18.24 10.17 C 19.56 9.80 20.90 9.55 22.25 9.35 C 22.36 9.48 22.59 9.75 22.71 9.89 C 21.99 10.96 21.27 12.03 20.61 13.14 C 20.26 12.69 19.56 11.80 19.21 11.35 C 18.97 11.06 18.48 10.47 18.24 10.17 Z" />
<path fill="#fffefb" d=" M 20.61 13.14 C 21.27 12.03 21.99 10.96 22.71 9.89 C 23.93 11.58 25.03 13.35 26.10 15.15 C 23.73 16.14 21.33 17.06 18.90 17.90 C 19.46 16.31 20.02 14.72 20.61 13.14 Z" />
<path fill="#003e80" d=" M 24.45 24.78 C 27.69 21.02 31.66 17.06 36.94 16.83 C 45.09 16.67 53.25 16.84 61.41 16.76 C 59.66 19.50 57.87 22.22 55.94 24.83 C 45.44 24.77 34.94 24.92 24.45 24.78 Z" />
<path fill="#003e7f" d=" M 59.59 24.70 C 61.37 22.06 63.11 19.40 64.83 16.73 C 72.25 16.87 79.67 16.68 87.09 16.79 C 90.34 16.33 92.16 20.28 91.61 23.00 C 89.92 29.82 85.65 37.05 78.01 38.07 C 78.40 41.95 79.44 45.71 80.26 49.50 C 77.00 49.52 73.74 49.51 70.48 49.49 C 69.46 43.43 68.03 37.45 66.88 31.41 C 70.25 31.34 73.64 31.63 76.99 31.19 C 79.74 30.67 80.60 27.74 81.73 25.60 C 74.51 23.77 66.95 25.20 59.59 24.70 Z" />
<path fill="#003f83" d=" M 97.66 24.77 C 99.56 22.18 101.37 19.53 103.04 16.78 C 106.30 16.77 109.57 16.78 112.83 16.75 C 111.08 19.44 109.28 22.09 107.50 24.75 C 104.22 24.82 100.94 24.81 97.66 24.77 Z" />
<path fill="#003e7f" d=" M 111.27 24.77 C 113.01 22.06 114.83 19.40 116.67 16.75 C 126.90 16.80 137.14 16.78 147.38 16.76 C 145.51 19.42 143.67 22.09 141.78 24.73 C 131.61 24.86 121.44 24.78 111.27 24.77 Z" />
<path fill="#77777a" d=" M 151.60 18.41 C 152.29 16.95 154.09 17.03 155.38 16.49 C 154.34 18.51 153.19 20.48 152.03 22.44 C 153.72 22.46 155.42 22.49 157.12 22.53 C 158.25 20.74 159.38 18.96 160.49 17.16 C 161.26 17.12 162.81 17.04 163.58 17.00 C 160.79 21.53 158.00 26.06 155.28 30.63 C 154.24 30.62 153.21 30.62 152.17 30.61 C 153.41 28.67 154.64 26.73 155.85 24.78 C 154.19 24.80 152.54 24.89 150.90 25.06 C 149.21 26.56 148.30 28.70 147.11 30.57 C 146.09 30.60 145.06 30.62 144.05 30.64 C 146.66 26.62 148.96 22.41 151.60 18.41 Z" />
<path fill="#767778" d=" M 165.65 18.50 C 166.35 16.87 168.35 17.09 169.74 16.54 C 167.12 21.36 164.06 25.92 161.31 30.67 C 160.25 30.66 159.20 30.65 158.15 30.64 C 160.75 26.66 163.07 22.50 165.65 18.50 Z" />
<path fill="#78787a" d=" M 171.35 19.40 C 174.89 16.12 180.04 16.98 184.43 17.11 C 184.12 17.65 183.50 18.73 183.19 19.28 C 180.60 19.31 177.98 19.09 175.41 19.52 C 171.88 20.91 170.03 24.60 169.26 28.11 C 170.97 28.20 172.68 28.29 174.39 28.38 C 175.09 27.33 175.80 26.28 176.51 25.23 C 175.55 25.10 173.62 24.85 172.66 24.73 C 173.23 23.96 173.80 23.18 174.38 22.41 C 176.63 22.45 178.89 22.49 181.15 22.54 C 179.49 25.22 177.83 27.90 176.23 30.61 C 172.92 30.67 169.61 30.65 166.30 30.51 C 164.94 26.08 168.30 22.17 171.35 19.40 Z" />
<path fill="#79797b" d=" M 186.28 18.15 C 186.99 16.84 188.80 17.19 190.00 16.69 C 188.89 18.68 187.72 20.64 186.57 22.61 C 188.31 22.50 190.06 22.50 191.78 22.19 C 193.09 20.64 194.04 18.84 195.06 17.09 C 195.83 17.12 197.36 17.19 198.13 17.22 C 195.35 21.18 193.14 25.50 190.41 29.49 C 189.69 30.76 188.05 30.60 186.87 31.05 C 187.93 29.05 189.05 27.08 190.20 25.13 C 188.48 25.11 186.76 25.09 185.04 25.07 C 183.91 26.91 182.77 28.74 181.63 30.57 C 180.92 30.61 179.49 30.70 178.78 30.74 C 181.19 26.50 183.58 22.22 186.28 18.15 Z" />
<path fill="#003f7f" d=" M 19.50 31.45 C 22.84 30.87 26.26 31.23 29.64 31.22 C 27.16 34.66 24.63 38.06 22.34 41.63 C 29.59 42.57 36.91 41.89 44.19 42.11 C 42.52 44.55 40.84 46.97 39.24 49.46 C 30.96 49.49 22.67 49.65 14.40 49.43 C 11.27 49.59 9.67 45.77 11.20 43.29 C 13.39 39.00 16.57 35.26 19.50 31.45 Z" />
<path fill="#003e80" d=" M 54.94 31.35 C 58.15 31.27 61.36 31.26 64.58 31.29 C 60.70 37.33 56.70 43.30 52.95 49.43 C 49.57 49.54 46.17 49.54 42.79 49.47 C 46.80 43.40 51.04 37.48 54.94 31.35 Z" />
<path fill="#003e81" d=" M 93.54 31.50 C 96.64 31.02 99.80 31.33 102.92 31.32 C 98.93 37.37 94.88 43.38 90.92 49.45 C 87.74 49.54 84.56 49.55 81.38 49.49 C 85.40 43.48 89.29 37.36 93.54 31.50 Z" />
<path fill="#003e7f" d=" M 94.62 49.53 C 98.70 43.44 102.80 37.37 106.90 31.29 C 113.95 31.28 121.01 31.24 128.07 31.31 C 125.94 34.04 123.95 36.88 121.94 39.70 C 118.24 39.67 114.55 39.68 110.86 39.68 C 108.66 42.98 106.41 46.24 104.18 49.51 C 100.99 49.52 97.81 49.52 94.62 49.53 Z" />
<path fill="#77787a" d=" M 187.58 41.59 C 191.43 39.28 194.73 35.60 199.44 35.11 C 196.82 38.14 193.30 40.14 190.07 42.43 C 190.53 44.76 191.02 47.08 191.50 49.41 C 190.56 49.41 188.67 49.41 187.73 49.41 C 187.35 47.16 186.97 44.91 186.56 42.66 C 185.23 44.87 183.94 47.09 182.68 49.34 C 181.88 49.34 180.29 49.34 179.49 49.34 C 182.56 44.98 184.68 39.94 188.14 35.87 C 188.80 35.67 190.14 35.25 190.80 35.04 C 189.77 37.25 188.64 39.41 187.58 41.59 Z" />
<path fill="#767676" d=" M 132.51 49.73 C 135.09 44.87 138.17 40.31 140.89 35.53 C 142.36 35.52 143.83 35.51 145.30 35.51 C 144.25 39.02 143.26 42.55 142.19 46.06 C 145.59 42.59 148.92 39.07 152.25 35.54 C 153.66 35.54 155.07 35.53 156.48 35.53 C 153.52 39.95 151.33 44.92 147.89 48.98 C 147.20 49.17 145.81 49.55 145.12 49.75 C 147.01 46.34 149.23 43.14 151.17 39.77 C 147.99 42.80 145.00 46.01 142.07 49.27 C 141.27 49.31 139.68 49.38 138.88 49.42 C 139.77 45.90 140.74 42.40 141.70 38.90 C 139.50 42.14 137.97 45.80 135.61 48.93 C 134.83 49.13 133.29 49.53 132.51 49.73 Z" />
<path fill="#7a7a7c" d=" M 161.43 37.43 C 162.71 35.98 164.59 35.51 166.40 35.08 C 165.82 39.88 164.78 44.60 163.87 49.34 C 163.07 49.36 161.46 49.41 160.65 49.43 C 160.78 48.60 161.05 46.94 161.18 46.10 C 159.31 46.29 157.33 46.00 155.56 46.66 C 153.56 47.95 151.73 49.65 149.18 49.68 C 153.00 45.34 157.34 41.51 161.43 37.43 Z" />
<path fill="#767778" d=" M 165.10 49.87 C 167.45 44.83 170.65 40.26 173.48 35.49 C 177.04 35.46 180.62 35.50 184.14 36.13 C 183.49 39.77 181.02 42.55 177.70 44.05 C 177.68 45.84 177.67 47.63 177.67 49.42 C 176.53 49.42 175.40 49.42 174.26 49.42 C 174.37 47.64 174.47 45.87 174.58 44.09 C 173.71 44.13 171.97 44.20 171.10 44.23 C 169.65 46.64 168.42 49.77 165.10 49.87 Z" />
<path fill="#ffffff" d=" M 174.51 38.17 C 176.53 38.17 178.55 38.20 180.57 38.28 C 179.57 41.85 175.87 41.72 172.84 41.82 C 173.39 40.60 173.95 39.39 174.51 38.17 Z" />
<path fill="#ffffff" d=" M 157.90 43.73 C 159.56 42.03 161.23 40.35 162.93 38.70 C 162.59 40.34 162.24 41.99 161.89 43.64 C 160.56 43.67 159.23 43.70 157.90 43.73 Z" />
<path fill="#003e7f" d=" M 40.09 58.83 C 40.61 58.75 41.63 58.60 42.14 58.53 C 41.70 59.04 40.82 60.06 40.38 60.57 C 41.26 61.12 42.12 61.68 42.99 62.24 C 43.85 60.41 44.95 58.69 46.96 57.95 C 46.61 58.80 45.92 60.50 45.57 61.35 C 46.75 61.53 47.92 61.76 49.07 62.04 C 48.02 65.25 46.16 68.45 43.08 70.07 C 44.10 67.50 45.57 65.14 46.70 62.62 C 42.58 63.43 41.65 68.16 38.33 70.18 C 38.91 67.13 40.95 64.73 42.91 62.45 C 41.17 63.11 38.68 62.69 37.77 64.69 C 37.08 65.99 34.75 68.00 38.41 68.45 C 36.74 68.81 35.06 69.13 33.38 69.42 C 34.32 67.04 35.61 64.82 36.83 62.57 C 34.27 62.91 31.62 63.06 29.23 64.15 C 30.56 64.36 33.20 64.77 34.52 64.97 C 32.31 66.13 29.80 66.19 27.41 66.64 C 29.10 67.17 30.83 67.56 32.54 68.02 C 30.35 69.60 27.73 69.21 25.31 68.57 C 26.40 64.70 29.61 60.98 34.01 61.56 C 36.59 62.00 38.70 61.00 40.09 58.83 Z" />
<path fill="#003e7f" d=" M 2.84 60.20 C 5.92 57.61 10.25 58.92 13.90 58.87 C 12.43 60.14 10.61 60.63 8.72 60.77 C 6.07 63.78 4.93 68.72 0.57 69.66 C 2.33 66.52 4.44 63.60 6.54 60.68 C 5.61 60.56 3.77 60.32 2.84 60.20 Z" />
<path fill="#003e7f" d=" M 70.82 62.09 C 72.48 60.77 74.11 59.42 75.78 58.12 C 75.48 59.73 75.41 61.37 75.66 62.99 C 75.05 63.05 73.82 63.15 73.21 63.20 C 72.48 64.30 71.75 65.40 71.01 66.50 C 71.39 67.39 71.77 68.28 72.14 69.17 C 70.64 69.19 69.14 69.20 67.64 69.20 C 68.78 66.87 70.22 64.65 70.82 62.09 Z" />
<path fill="#003e7f" d=" M 92.52 61.18 C 93.61 59.97 94.83 58.88 96.36 58.24 C 96.04 58.94 95.40 60.34 95.08 61.04 C 95.41 61.53 96.09 62.52 96.42 63.01 C 95.68 63.06 94.18 63.17 93.43 63.22 C 92.68 64.29 91.93 65.35 91.18 66.41 C 91.49 67.42 91.80 68.44 92.10 69.46 C 90.63 69.23 89.17 68.97 87.71 68.69 C 88.76 67.06 89.83 65.44 90.90 63.83 C 90.75 63.39 90.45 62.51 90.30 62.07 C 91.04 61.77 91.78 61.48 92.52 61.18 Z" />
<path fill="#003e7f" d=" M 92.37 69.72 C 95.33 65.85 96.98 60.38 101.60 58.19 C 101.05 59.30 100.48 60.41 99.90 61.51 C 100.89 61.61 102.87 61.82 103.86 61.92 C 102.25 64.80 101.08 69.04 97.36 69.74 C 98.60 67.46 100.05 65.30 101.30 63.02 C 96.64 62.65 96.74 69.31 92.37 69.72 Z" />
<path fill="#003e7f" d=" M 143.60 61.66 C 144.91 60.24 146.41 59.01 148.26 58.37 C 147.60 59.42 146.93 60.45 146.25 61.48 C 146.85 61.65 148.04 61.98 148.64 62.15 C 147.46 62.60 146.27 63.03 145.08 63.44 C 144.36 64.39 143.64 65.33 142.92 66.27 C 143.27 67.25 143.62 68.23 143.98 69.21 C 142.46 69.27 140.94 69.30 139.42 69.31 C 140.54 67.00 141.85 64.80 142.99 62.50 C 140.97 63.15 139.11 64.17 137.31 65.28 C 137.34 66.87 137.36 68.46 137.35 70.05 C 136.28 69.30 135.29 68.48 134.37 67.57 C 131.44 70.37 127.25 69.20 123.62 69.16 C 124.31 63.94 129.42 60.41 134.60 61.70 C 132.59 63.52 129.67 63.26 127.29 64.33 C 128.62 64.56 131.27 65.00 132.59 65.23 C 130.28 66.04 127.84 66.33 125.52 67.10 C 126.53 67.26 128.57 67.57 129.58 67.73 L 129.86 68.90 C 131.50 67.82 133.13 66.74 134.76 65.65 C 134.74 64.31 134.71 62.96 134.68 61.61 C 135.29 61.63 136.51 61.67 137.12 61.69 C 137.13 62.22 137.15 63.28 137.16 63.81 C 138.20 63.09 139.23 62.37 140.28 61.65 C 141.38 61.66 142.49 61.66 143.60 61.66 Z" />
<path fill="#003e7f" d=" M 155.64 60.49 C 156.30 59.21 157.78 58.95 158.98 58.39 C 156.26 62.53 154.10 67.38 149.95 70.31 C 150.90 66.57 153.61 63.67 155.64 60.49 Z" />
<path fill="#003e7f" d=" M 177.24 69.83 C 180.10 65.91 181.72 60.24 186.53 58.33 C 184.45 62.02 182.21 65.67 179.49 68.92 C 178.93 69.15 177.80 69.60 177.24 69.83 Z" />
<path fill="#003e7f" d=" M 14.37 61.51 C 15.79 61.12 17.75 61.20 18.43 62.77 C 17.37 66.74 13.18 70.15 8.95 69.16 C 6.85 65.85 11.41 62.34 14.37 61.51 Z" />
<path fill="#003e7f" d=" M 59.11 61.59 C 60.99 61.57 62.87 61.61 64.75 61.72 C 63.84 63.02 62.92 64.31 61.90 65.53 C 61.66 64.78 61.18 63.27 60.94 62.51 C 59.23 64.74 57.62 67.04 56.15 69.43 C 55.51 69.23 54.46 69.35 54.39 68.44 C 54.43 67.84 54.51 66.64 54.55 66.04 C 52.83 66.14 51.12 66.28 49.41 66.45 C 50.59 66.98 51.78 67.51 52.89 68.17 C 52.81 70.54 49.13 68.60 47.67 69.16 C 47.83 63.70 53.49 60.35 58.57 61.63 C 56.50 63.24 53.76 63.17 51.37 64.01 C 53.31 64.25 55.11 64.86 56.00 66.71 C 57.03 65.00 58.09 63.31 59.11 61.59 Z" />
<path fill="#17497c" d=" M 73.41 68.12 C 74.11 63.37 79.21 60.59 83.70 61.61 C 83.48 65.33 80.63 68.46 77.06 69.31 C 75.51 69.90 74.29 69.50 73.41 68.12 Z" />
<path fill="#003e7f" d=" M 102.16 69.27 C 102.29 63.67 108.17 60.43 113.26 61.76 C 110.92 63.18 108.11 63.31 105.61 64.34 C 107.39 64.59 109.16 64.85 110.94 65.12 C 108.80 66.36 106.27 66.28 103.92 66.79 C 105.58 67.29 107.28 67.65 108.96 68.09 C 107.02 69.68 104.46 69.23 102.16 69.27 Z" />
<path fill="#003e7f" d=" M 170.61 68.22 C 171.90 63.34 177.05 60.55 181.87 61.93 C 179.45 62.99 176.86 63.52 174.39 64.44 C 175.67 64.64 178.22 65.04 179.49 65.25 C 177.25 66.11 174.86 66.49 172.55 67.14 C 173.82 67.38 176.36 67.87 177.63 68.11 C 175.66 69.51 172.39 70.38 170.61 68.22 Z" />
<path fill="#003e7f" d=" M 20.57 62.65 C 22.85 61.16 25.70 61.56 28.27 61.33 C 26.03 64.43 24.21 67.87 21.54 70.63 C 19.63 72.52 16.68 71.57 14.28 71.81 C 14.51 71.44 14.97 70.70 15.21 70.33 C 17.18 70.21 19.16 70.09 21.13 69.90 C 19.56 69.36 18.00 68.81 16.44 68.26 C 17.52 66.21 18.46 63.87 20.57 62.65 Z" />
<path fill="#003e7f" d=" M 119.22 61.65 C 121.36 61.65 123.49 61.71 125.63 61.82 C 124.45 64.52 122.82 66.97 121.18 69.41 C 120.48 69.39 119.78 69.37 119.08 69.36 C 120.37 67.43 121.66 65.51 122.96 63.59 C 122.34 63.49 121.11 63.28 120.50 63.18 C 118.60 65.66 117.34 68.97 114.10 70.00 C 115.57 67.07 117.48 64.41 119.22 61.65 Z" />
<path fill="#003e7f" d=" M 154.37 68.25 C 155.38 65.50 157.25 62.74 160.22 61.93 C 162.73 61.53 165.27 61.77 167.79 61.71 C 167.18 63.47 166.56 65.23 165.96 67.00 C 168.52 64.84 170.73 62.03 174.16 61.23 C 170.98 64.56 167.82 68.21 163.47 70.01 C 163.82 67.38 164.44 64.79 165.29 62.28 C 162.84 62.97 160.35 63.51 157.95 64.37 C 159.27 64.60 161.92 65.06 163.24 65.30 C 160.96 66.04 158.56 66.37 156.30 67.19 C 157.57 67.39 160.11 67.77 161.38 67.97 C 159.51 69.67 156.23 70.26 154.37 68.25 Z" />
<path fill="#ffffff" d=" M 10.12 67.65 C 11.21 65.31 13.09 62.30 16.18 63.25 C 15.31 65.93 13.00 67.71 10.12 67.65 Z" />
<path fill="#ffffff" d=" M 19.05 67.61 C 19.94 64.85 22.03 62.92 25.02 62.77 C 23.75 65.17 22.26 68.04 19.05 67.61 Z" />
<path fill="#ffffff" d=" M 75.74 67.27 C 76.49 64.75 78.75 62.96 81.45 62.96 C 80.57 65.31 78.71 68.43 75.74 67.27 Z" />
</svg>
